<svg width="85" height="24" viewBox="0 0 85 24" fill="none" xmlns="http://www.w3.org/2000/svg">
<path d="M14.8318 0.935999V14.16H18.0478V0.935999H14.8318ZM16.6318 6.264V8.88H20.4718V6.264H16.6318ZM0.527751 10.248V12.864H1.65575C3.55175 12.864 4.94375 12.84 6.71975 12.48L6.47975 9.888C4.79975 10.224 3.43175 10.248 1.65575 10.248H0.527751ZM0.527751 2.52V11.52H3.57575V5.04H6.26375V2.52H0.527751ZM7.36775 10.224V12.84H8.56775C11.3038 12.84 12.5038 12.816 13.9918 12.456L13.7278 9.84C12.3118 10.2 11.1598 10.224 8.56775 10.224H7.36775ZM7.36775 2.52V11.52H10.3918V5.04H13.2718V2.52H7.36775ZM10.4878 14.472C5.73575 14.472 2.78375 16.08 2.78375 18.792C2.78375 21.552 5.73575 23.136 10.4878 23.136C15.2398 23.136 18.1918 21.552 18.1918 18.792C18.1918 16.08 15.2398 14.472 10.4878 14.472ZM10.4878 16.944C13.4158 16.944 14.9758 17.544 14.9758 18.792C14.9758 20.064 13.4158 20.664 10.4878 20.664C7.55975 20.664 5.99975 20.064 5.99975 18.792C5.99975 17.544 7.55975 16.944 10.4878 16.944ZM21.6219 10.272V12.792H41.7339V10.272H21.6219ZM23.4939 1.872V4.392H28.6779V1.872H23.4939ZM27.7419 1.872V2.904C27.7419 4.536 27.7419 7.152 26.3739 11.136L29.4219 11.856C30.8859 7.608 30.8619 4.68 30.8619 2.904V1.872H27.7419ZM32.1339 1.872V4.392H37.8459V1.872H32.1339ZM36.3819 1.872V2.928C36.3819 4.608 36.3819 7.344 35.3019 11.376L38.3739 11.856C39.5019 7.632 39.4779 4.704 39.4779 2.928V1.872H36.3819ZM30.0699 14.616V15.312C30.0699 17.664 27.8619 20.016 22.8939 20.592L24.0699 23.088C29.7099 22.296 32.8059 19.272 32.8059 15.312V14.616H30.0699ZM30.5259 14.616V15.312C30.5259 19.272 33.6219 22.296 39.2619 23.088L40.4379 20.592C35.4699 20.016 33.2619 17.664 33.2619 15.312V14.616H30.5259ZM43.892 3V17.736H54.524V3H43.892ZM51.38 5.496V15.216H47.036V5.496H51.38ZM57.428 0.912V23.136H60.644V0.912H57.428ZM59.924 9.288V11.928H63.86V9.288H59.924ZM72.4741 7.056V9.576H77.0341V7.056H72.4741ZM80.8981 0.912V15.744H83.9221V0.912H80.8981ZM76.2901 1.272V13.776H79.2901V1.272H76.2901ZM74.5861 14.544V14.976C74.5861 17.376 72.2821 19.92 67.4341 20.568L68.6581 23.064C74.2021 22.224 77.3221 18.936 77.3221 14.976V14.544H74.5861ZM75.0181 14.544V14.976C75.0181 18.936 78.1381 22.224 83.6821 23.064L84.8821 20.568C80.0821 19.92 77.7541 17.376 77.7541 14.976V14.544H75.0181ZM71.4901 2.592V3.552C71.4901 7.848 69.8341 10.92 64.6501 13.152L66.1621 15.408C72.4261 12.672 74.5621 8.448 74.5621 2.592H71.4901ZM65.8501 2.592V5.136H72.4741V2.592H65.8501ZM71.6341 6.816L64.9381 7.128L65.3221 9.672L71.6341 8.976V6.816Z" fill="#161921"/>
</svg>
